<?xml version="1.0" standalone="no"?>
<!DOCTYPE svg PUBLIC "-//W3C//DTD SVG 20010904//EN"
 "http://www.w3.org/TR/2001/REC-SVG-20010904/DTD/svg10.dtd">
<svg version="1.0" xmlns="http://www.w3.org/2000/svg"
 width="268.000000pt" height="268.000000pt" viewBox="0 0 268.000000 268.000000"
 preserveAspectRatio="xMidYMid meet">
<metadata>
Created by potrace 1.14, written by Peter Selinger 2001-2017
</metadata>
<g transform="translate(0.000000,268.000000) scale(0.100000,-0.100000)"
fill="#000000" stroke="none">
<path d="M1267 2674 c-2 -2 -28 -6 -57 -9 -29 -2 -60 -7 -69 -10 -9 -2 -32 -6
-51 -9 -19 -2 -64 -12 -100 -21 -36 -9 -75 -19 -86 -21 -12 -2 -39 -11 -60
-20 -21 -9 -45 -17 -54 -19 -39 -8 -90 -35 -104 -57 -9 -13 -17 -45 -18 -71
-2 -26 -7 -47 -12 -47 -6 0 -5 -5 1 -11 14 -14 5 -41 -11 -32 -6 3 -8 3 -4 -1
3 -4 -5 -29 -18 -56 -13 -26 -24 -53 -24 -60 0 -6 -4 -9 -8 -6 -5 3 -9 -1 -9
-9 0 -17 -45 -109 -55 -113 -5 -2 -8 -9 -8 -17 0 -7 -7 -18 -15 -25 -16 -13
-67 -113 -72 -140 -7 -38 -4 -87 6 -112 6 -15 13 -48 17 -73 4 -36 1 -50 -16
-75 -12 -16 -19 -30 -16 -30 3 0 -1 -8 -9 -17 -9 -10 -40 -49 -70 -88 -30 -38
-66 -82 -80 -97 -14 -15 -25 -32 -25 -39 0 -7 -3 -9 -7 -6 -9 10 -53 -58 -53
-83 0 -12 5 -30 10 -41 13 -23 83 -69 105 -69 24 0 18 -51 -10 -93 -14 -20
-29 -37 -34 -37 -20 0 4 -78 31 -102 20 -17 20 -17 -1 -44 -28 -35 -27 -48 7
-82 61 -64 71 -83 59 -106 -7 -11 -14 -23 -17 -26 -18 -18 -21 -109 -5 -141
19 -35 71 -75 110 -85 17 -4 36 -11 43 -17 8 -6 12 -6 12 2 0 7 5 9 12 4 7 -4
65 -8 128 -9 63 0 132 -6 152 -13 43 -14 100 -74 92 -96 -4 -8 -1 -15 5 -15 6
0 8 -7 4 -17 -4 -9 -2 -14 3 -10 6 3 9 -14 8 -44 -2 -36 0 -47 9 -42 8 4 7 1
-1 -9 -9 -12 -10 -18 -2 -23 8 -5 8 -11 -1 -21 -7 -8 -7 -14 -1 -14 5 0 9 -18
8 -40 -1 -22 3 -42 8 -44 6 -2 5 -5 -3 -5 -11 -1 -11 -4 0 -18 12 -14 12 -16
0 -8 -9 5 -12 4 -8 -2 8 -13 77 -23 77 -11 0 4 10 4 23 -1 28 -11 38 -11 59 0
11 6 19 5 23 -1 5 -8 11 -8 19 -1 7 6 15 9 18 6 8 -8 116 -10 124 -3 4 4 14 3
24 -2 10 -5 20 -7 23 -4 3 4 50 5 104 4 54 -1 104 -2 111 -1 25 2 39 2 108 0
39 -1 76 1 83 5 6 4 11 4 11 -1 0 -10 73 -9 89 1 6 4 11 3 11 -3 0 -8 59 -5
69 5 2 2 12 -1 23 -7 14 -7 23 -7 34 2 8 6 14 7 14 2 0 -5 16 -10 35 -11 39
-3 37 -7 20 78 -14 72 -27 149 -30 180 -2 19 -4 35 -5 35 -18 0 -32 386 -17
470 18 102 30 131 66 149 16 9 35 22 43 29 7 7 21 18 32 24 46 25 174 167 237
262 38 57 69 110 69 118 0 7 5 13 12 13 6 0 9 3 5 6 -3 4 1 21 10 38 10 17 18
33 18 36 1 3 4 12 7 20 24 62 25 65 32 100 3 14 8 36 12 50 16 71 22 253 10
310 -5 25 -33 126 -40 145 -2 6 -7 20 -11 33 -4 12 -11 22 -16 22 -5 0 -9 7
-9 15 0 13 -43 89 -60 105 -3 3 -22 32 -44 65 -21 33 -61 82 -89 109 -52 51
-192 146 -214 146 -7 0 -13 5 -13 12 0 6 -3 9 -6 6 -3 -3 -33 5 -67 18 -33 13
-70 24 -82 24 -12 0 -25 4 -31 9 -9 10 -71 21 -131 24 -18 1 -33 4 -33 7 0 7
-387 10 -393 4z"/>
</g>
</svg>
